<svg enable-background="new 0 0 190.4 293.1" height="392.308871" viewBox="0 0 190.4 293.1" width="254.901195" xmlns="http://www.w3.org/2000/svg"><path d="m115.7 153.9c8.4-6.2 13.4-16 13.4-26.4v-35c.1-.2.3-.5.4-.8 0-.1.1-.2.1-.3.1-.3.3-.5.4-.7.2-.3.5-.6.6-1.3.1-.3.2-.5.4-.7s.4-.5.6-.9c.3-1 .7-2.1 1.3-3.1.3-.6 1.1-1.3 1.7-1.6.2-.1.4-.1.6-.1 1.3 0 2.5 1.7 3 2.7.4.9.7 1.8.9 2.7.3.9.6 1.8.9 2.7.1.3.2.5.3.7.2.5.3.9 1 1.5.3.3.7.4 1 .4.2 0 .7-.1.9-.6.5-1 .6-1.6.9-2.4.2-.7.5-1.5 1-3 .2-.6.7-.8 1.1-.8.5 0 .9.3 1.1.7.2.3.3.7.5 1 .3.6.6 1.3 1 1.9.1.2.3.5.4.8.3.8.6 1.6 1.3 1.6.4 0 .7-.4.8-.5.3-.5.8-.9 1.3-1.2.2-.1.3-.3.5-.4.3-.3.6-.6.9-.7.1 0 .3-.1.4-.2.3-.1.6-.3.8-.3.1 0 .2 0 .3.1.3.2.6.5 1 .9.6.4 1.2.9 1.5 1.3 1.1 1.1 1.1 1.2 2.3 3.2-.7 13.4-5.5 26.1-13.7 36.8-4 5.2-8.7 9.7-14 13.4-5.4 3.8-11 6.6-16.9 8.6z" fill="#fff"/><path d="m135.1 83.4c1.1 0 2.2 1.5 2.6 2.5.4.9.6 1.8.9 2.7s.6 1.8 1 2.8c.1.3.2.5.2.7.2.5.3 1 1.1 1.7.4.3.9.5 1.3.5.6 0 1-.3 1.3-.9.5-1.1.7-1.7.9-2.5.2-.7.4-1.5 1-3 .2-.5.6-.5.7-.5s.5 0 .7.4c.2.3.3.7.5 1 .3.6.6 1.3 1 2 .1.2.2.5.4.8.4.9.7 1.8 1.6 1.8.4 0 .8-.2 1.1-.7.3-.4.8-.8 1.2-1.2.2-.1.3-.3.5-.5.3-.3.5-.5.8-.6.2 0 .3-.1.4-.2.2-.1.5-.2.6-.2h.1c.3.2.6.6 1.1.9.5.4 1.2.9 1.5 1.2 1 1.1 1.1 1.1 2.2 3-.4 6.7-1.8 13.2-4.1 19.4-2.3 6.1-5.5 11.8-9.5 17-4 5.1-8.6 9.6-13.9 13.4-4.5 3.2-9.4 5.8-14.5 7.6 7.4-6.3 11.7-15.5 11.7-25.3v-34.6c.1-.2.3-.5.3-.8 0-.1.1-.2.1-.3.1-.3.3-.5.4-.6.2-.3.5-.7.6-1.4 0-.2.1-.3.3-.5.2-.3.5-.6.6-1 .3-1 .7-2.1 1.2-3.1.3-.6 1-1.2 1.5-1.4.3-.1.4-.1.6-.1m0-.8c-.2 0-.5 0-.7.1-.7.3-1.5 1.1-1.9 1.7-.6 1-1 2.1-1.3 3.2-.2.7-.8.9-1 1.7-.2.9-.6 1-1 1.9-.1.3-.3.8-.5 1.1v.2 35c0 10.9-5.4 20.6-13.8 26.5-.2.2-.1.5.2.5h.1c25.2-7.9 43.9-31.6 45.4-59.3 0-.1 0-.1 0-.2-1.3-2.1-1.3-2.1-2.4-3.3-.6-.6-1.9-1.6-2.5-2.1-.2-.2-.4-.2-.6-.2-.4 0-.9.3-1.3.4-.6.2-1 .8-1.5 1.2s-1 .8-1.3 1.3c-.2.3-.3.4-.5.4-.5 0-.9-1.6-1.3-2.2-.6-1-.9-1.9-1.5-2.9-.3-.6-.9-.9-1.4-.9-.6 0-1.2.3-1.5 1-1.2 3.1-1 3.5-1.9 5.4-.1.3-.3.4-.6.4-.2 0-.5-.1-.8-.3-.9-.7-.7-1.1-1.1-2.1-.8-1.9-1.1-3.6-1.9-5.5-.6-1.2-1.9-3-3.4-3z" fill="#034707"/><path d="m156.4 99.3c-2.1.3-2.6-3.6-4.2-3.7s-1.6 3.8-4.3 4.5-2.8-7.1-4.3-4.6c-2.1 3.5-1.6 4.3-2.6 4.4-2.6.3-4.5-3.7-5.6-4.4-1.2-.7-.4.2-2.1 0-.9-.1-2.8-1.5-4.3-2.6-.2-.2-.5 0-.5.2v34.5c0 10.9-5.4 20.6-13.8 26.5-.3.2-.1.6.3.5 25.2-7.9 43.9-31 45.3-58.7 0-.3-.3-.4-.5-.2-2.2 2.2-1.4 3.3-3.4 3.6z" fill="#034707"/><path d="m74.4 153.5c-5.9-2-11.4-4.9-16.5-8.6-5.2-3.8-9.8-8.3-13.7-13.5-8.1-10.6-12.7-23.2-13.5-36.4.2-.3.2-.6.3-1.1 0-.2.1-.5.1-.7.1-.3.1-.6.2-1 .2-1 .6-3.4 1.3-3.4.1 0 .4.1 1 .8.1.1.2.3.3.5.3.6.8 1.4 1.6 1.4h.1c.3 0 .6-.3.6-.6.1-.5.3-1.8.3-2.8 0-.1.3-.2.5-.2h.1c.5.4.9.8 1.2 1.1.5.5.8.8 1.1.8.6 0 .8-.9.9-2.1.2-1.2.6-3.4 2.1-4.5.1-.1.3-.2.4-.2.3 0 .5.1.6.4.2.4.5.8.7 1.2.3.5.6.9.8 1.3.8 1.5 1.8 1.8 2.4 1.8.5 0 1.1-.2 1.6-.6.8-.6 1.3-1.6 1.7-2.6.5-1.1.9-2.1 1.6-2.1.2 0 .5.1.8.2.5.3.8.9 1 1.5s.5 1.2 1 1.6c.4.3.7.4 1 .4.7 0 .9-.7 1.2-1.2.2-.4.3-.8.6-1 .2-.2.4-.2.7-.2.9 0 1.7 1 2.2 1.7l.1.1c.2.3.6.7.6 1v40.8c0 10.5 4.8 19.9 13 26.2z" fill="#fff"/><path d="m52.3 82.9c.1 0 .3.1.6.2.4.2.6.7.9 1.3s.5 1.3 1.2 1.8c.5.3.9.5 1.3.5 1 0 1.3-.9 1.5-1.5.1-.3.3-.7.5-.8s.3-.2.5-.2c.7 0 1.5 1 1.9 1.5.1.1.5.6.5.8v40.8c0 9.6 4.1 18.5 11.3 24.8-5-1.9-9.8-4.5-14.2-7.7-5.2-3.7-9.8-8.2-13.7-13.4s-7.1-10.8-9.3-16.9c-2.3-6.2-3.7-12.6-4-19.2.2-.3.2-.7.3-1.1 0-.2.1-.5.1-.7.1-.3.1-.6.2-1 .1-.6.3-1.4.5-2.1s.4-.9.5-1c.1 0 .3.2.6.6.1.1.2.3.3.4.3.6.9 1.6 1.9 1.6h.1c.5 0 .9-.4 1-.9s.2-1.7.3-2.6c.5.4.8.7 1.1 1 .5.5.9.9 1.4.9 1 0 1.1-1.1 1.3-2.5.1-1.1.6-3.2 1.9-4.2.1 0 .1-.1.2-.1s.2.1.3.2c.2.4.5.8.8 1.2.3.5.6.9.8 1.3.9 1.6 2 2 2.8 2 .6 0 1.2-.2 1.8-.6.9-.6 1.4-1.7 1.8-2.8.1-.6.5-1.6 1-1.6zm0-.8c-1.8 0-1.9 3.7-3.5 4.8-.5.3-1 .5-1.4.5-.9 0-1.5-.6-2.1-1.6-.4-.7-1.1-1.7-1.6-2.5-.2-.4-.6-.6-.9-.6-.2 0-.5.1-.7.2-1.4 1.1-2 3.1-2.2 4.7-.2 1.3-.3 1.8-.5 1.8-.3 0-.9-.8-2.1-1.8-.1-.1-.2-.1-.3-.1-.4 0-.9.3-.9.6 0 1-.2 2.3-.3 2.7 0 .1-.1.2-.3.2 0 0 0 0-.1 0-.8 0-1.1-1.2-1.5-1.7-.5-.7-.9-1-1.3-1-1.2 0-1.6 3.5-1.9 4.7-.2.7-.1 1.4-.4 1.7v.2c1.5 27.2 19.8 50.8 44.6 59.1h.1c.3 0 .4-.3.2-.5-8.1-5.9-13.4-15.4-13.4-26.1v-40.7c0-.5-.4-1-.7-1.4-.6-.7-1.5-1.8-2.6-1.8-.3 0-.6.1-.9.3-.8.6-.7 2.1-1.5 2.1-.2 0-.5-.1-.8-.4-.9-.7-.9-2.5-2.1-3.1-.3-.2-.7-.3-.9-.3z" fill="#034707"/><path d="m61.8 127.5v-40c0-.1-.1-.3-.2-.3-1.2-.2-2.7-.1-4.1 1.3-2.8 2.8-1.6 5-3.9 5.3-2.3.4-.4.3-3.5 1.6-3.2 1.4-5.3-2.9-7.3-1.1s-2.8 3.9-5.9 3.7c-1.9-.1-4.3-1.6-5.9-2.7-.2-.1-.5 0-.4.3 1.3 27.4 19.6 50.4 44.6 58.6.3.1.5-.3.3-.5-8.4-6-13.7-15.5-13.7-26.2z" fill="#034707"/><g fill="#0e0465"><path d="m28.9 81c-.1.5-.3 1-.5 1.5-.3.4-.5.8-.8 1.1l.5.5-.1.5-4.3-.6.1-.5c.4 0 .9-.1 1.3-.2.5-.1.9-.3 1.3-.4.4-.2.8-.4 1-.7.3-.3.5-.6.5-1 .1-.6 0-1-.3-1.4s-.7-.6-1.3-.7c-.5-.1-.9 0-1.2.2s-.7.6-1 1.1c-.2.3-.4.6-.6.9s-.3.5-.5.8c-.4.5-.9.9-1.6 1.1-.6.2-1.3.2-2 .1-.5-.1-.9-.2-1.3-.5-.4-.2-.7-.5-1-.9-.3-.3-.5-.7-.6-1.2s-.1-.9 0-1.5c.1-.5.3-.9.5-1.3.3-.4.5-.7.7-.9l-.4-.5.1-.5 4 .6v.4c-.4 0-.9.1-1.4.2s-.9.2-1.2.3-.6.3-.9.6c-.2.2-.4.5-.4.9-.1.5 0 .9.3 1.2s.7.6 1.2.6c.5.1.9 0 1.2-.2s.7-.5 1-1l.6-.9s.4-.6.5-.8c.4-.6.9-.9 1.5-1.2.6-.2 1.3-.3 2.1-.1.5.1 1 .3 1.4.5.4.3.8.6 1 .9.3.4.5.8.6 1.3.1.6.1 1.1 0 1.7z"/><path d="m32.1 67.6-1.5 4.7-.6-.2c0-.2.1-.5.1-.8s0-.5-.2-.5h-.1s-.1 0-.2 0h-2.6l-.9 3c.2.1.4.3.7.5s.5.3.7.5c.3.2.5.3.6.3s.2.1.3.1c.2 0 .3 0 .5-.2s.4-.5.6-.9l.6.2-1.1 3.4-.6-.2c0-.1 0-.3.1-.5 0-.2 0-.3-.1-.5s-.2-.4-.3-.6-.3-.3-.6-.5c-1.3-.9-2.7-1.9-4-2.8-1.4-.9-2.8-2-4.5-3.1l.4-1.2h6.6s3 0 4 0c.2 0 .3 0 .5-.1.2 0 .3-.1.5-.2.1-.1.2-.2.3-.3s.2-.3.2-.4zm-5.9 3.1h-4.5l3.7 2.5z"/><path d="m34.1 63.6-2 4.6-.6-.3c0-.1.1-.3.2-.5s.1-.4.1-.5c0-.2-.1-.3-.2-.4s-.3-.2-.4-.3l-7.7-3.3c-.2-.1-.3-.1-.5-.1s-.3 0-.4.2c-.1.1-.2.2-.3.3s-.2.3-.3.4l-.6-.3 2-4.6.6.3c0 .1-.1.3-.1.5s-.1.3-.1.5.1.3.2.4.3.2.4.3l7.7 3.3c.2.1.3.1.5.1s.3 0 .4-.2l.3-.3c.1-.2.2-.3.3-.4z"/><path d="m29.5 48.7c0 .1-.1.3-.2.5s-.1.4 0 .7c0 .2.2.4.5.7.3.2.7.5 1.3.9l7.3 4.2-.6 1-10.6.3 4.8 2.8c.6.3 1.1.6 1.4.7s.6.2.9.1c.2 0 .3-.1.6-.3.2-.2.4-.3.5-.4l.6.3-1.9 3.3-.6-.3c.1-.2.1-.3.2-.6 0-.2 0-.4 0-.6-.1-.2-.2-.4-.5-.7-.3-.2-.7-.5-1.4-.9l-4.8-2.8c-.2-.1-.5-.2-.7-.3-.3-.1-.5-.1-.7 0-.2 0-.5.1-.6.2-.2.1-.4.3-.6.4l-.6-.3 1.7-2.9 9.4-.3-3.8-2.2c-.6-.3-1.1-.6-1.4-.7s-.6-.1-.8-.1-.4.1-.6.3-.3.3-.5.4l-.8-.3 1.9-3.3z"/><path d="m37.7 42.6-.3.4c-.5-.2-1-.4-1.7-.5s-1-.1-1.2.1c-.1.1-.2.2-.3.4-.1.1-.3.3-.3.4l-.2.2 7.3 5.7c.2.1.3.2.5.3s.3 0 .5 0c.1 0 .2-.1.4-.3.2-.1.3-.3.4-.3l.5.4-3.1 4-.5-.4c.1-.1.1-.3.3-.5.1-.2.2-.3.2-.4 0-.2 0-.3-.1-.5-.1-.1-.2-.3-.4-.4l-7.4-5.7-.3.1c-.1.1-.2.3-.3.4-.1.2-.2.3-.3.4-.1.2 0 .6.3 1.2s.6 1.1.9 1.5l-.3.4-2.7-2.1 5.3-6.9z"/><path d="m49.9 37.2 2.4 2.9-6.1 5.6-.4-.5c.1-.1.2-.3.3-.4.1-.2.2-.3.2-.3.1-.2.1-.3 0-.5 0-.1-.2-.3-.3-.5l-5.7-6.1c-.1-.1-.3-.3-.4-.3-.1-.1-.3-.1-.5 0-.1 0-.3.1-.5.2s-.3.2-.4.2l-.2-.5 3.6-3.4.4.5c-.1.1-.2.2-.3.4-.1.1-.2.3-.3.4-.1.2-.1.3 0 .5.1.1.2.3.3.4l5.3 5.7.6.6c.2.1.3.2.5.2s.3 0 .5-.2c.2-.1.4-.3.6-.5s.5-.5.7-.7c.2-.3.3-.5.3-.7 0-.3-.1-.8-.3-1.3s-.4-1-.6-1.4z"/><path d="m53.1 26.7c.7.2 1.3.5 2 1 .6.5 1.2 1.1 1.8 1.9.5.7.9 1.4 1.2 2.2s.4 1.5.4 2.2-.2 1.4-.5 2-.8 1.1-1.4 1.6c-.5.4-1.1.6-1.8.7-.6.1-1.3.1-2-.1s-1.3-.5-2-1c-.6-.5-1.2-1.1-1.8-1.8-.6-.8-1-1.6-1.2-2.4-.3-.8-.3-1.5-.3-2.2s.2-1.3.5-1.9.8-1.1 1.3-1.5c.6-.4 1.2-.6 1.8-.7.7-.2 1.3-.2 2 0zm3.5 7.8c-.1-.5-.3-1.1-.6-1.6-.3-.6-.7-1.2-1.2-1.8-.4-.6-.8-1.1-1.2-1.6s-.9-.9-1.3-1.2-.9-.5-1.3-.6-.8 0-1.2.3c-.6.4-.8 1.2-.6 2.2s.8 2.2 1.8 3.6c.4.6.9 1.2 1.3 1.6s.9.9 1.3 1.2.9.5 1.3.5c.4.1.8 0 1.1-.3.3-.2.6-.6.6-1 .2-.3.1-.8 0-1.3z"/><path d="m64.7 19.7c-.1.1-.2.2-.4.3-.2.2-.3.3-.4.5s-.1.5 0 .8.3.9.6 1.5l2 3.9c.6 1.2.7 2.2.5 3.2s-.9 1.8-1.8 2.2c-1.2.6-2.2.7-3.2.3s-1.8-1.2-2.4-2.4l-2.6-5.2c-.1-.2-.2-.3-.3-.4s-.3-.2-.5-.2c-.1 0-.3 0-.4 0s-.3.1-.4.1l-.3-.6 4.2-2.1.3.6c-.1.1-.2.2-.3.2-.1.1-.2.2-.3.3s-.2.3-.1.4.1.3.2.5l2.7 5.3c.5 1 1.1 1.7 1.7 2s1.2.3 1.9-.1c.7-.3 1-.9 1.2-1.6.1-.7-.1-1.6-.6-2.6l-2-3.3c-.3-.6-.6-1.1-.8-1.4s-.4-.5-.6-.5c-.2-.1-.4-.1-.7 0-.3 0-.5.1-.6.1l-.3-.6 3.5-1.8z"/><path d="m74.4 28.1-4.7 1.7-.2-.6c.1 0 .3-.1.5-.2s.3-.2.4-.3.2-.3.2-.4 0-.3-.1-.5l-3-7.8c-.1-.2-.1-.3-.3-.4-.1-.1-.2-.2-.4-.2-.1 0-.3 0-.5 0s-.4 0-.5.1l-.2-.6 4.7-1.7.2.6c-.1.1-.3.1-.4.2-.2.1-.3.2-.4.3s-.2.3-.2.4 0 .3.1.5l2.9 7.9c.1.2.2.3.3.5.1.1.2.2.4.2h.5s.4-.1.5-.1z"/><path d="m78.4 27.3c-.5.1-1.1.2-1.6.1-.5 0-.9-.2-1.3-.3l-.3.7-.5.2-1.2-4.1.5-.1c.2.4.5.7.8 1.1s.6.7.9 1 .7.5 1.1.7c.4.1.8.2 1.2.1.6-.1.9-.4 1.1-.9.2-.4.2-.9.1-1.5-.1-.4-.3-.8-.7-1-.3-.2-.8-.4-1.4-.5-.4-.1-.7-.1-1.1-.2-.3 0-.6-.1-.9-.2-.7-.2-1.2-.5-1.6-1s-.7-1.1-.9-1.8c-.1-.4-.2-.9-.1-1.3s.2-.9.4-1.3.5-.7.8-1c.4-.3.8-.5 1.3-.6s1-.2 1.4-.1c.5.1.9.2 1.1.3l.3-.6.5-.1 1.1 3.9-.5.1c-.2-.4-.5-.8-.8-1.2s-.6-.7-.8-1c-.3-.3-.6-.4-.9-.6-.3-.1-.6-.1-1 0s-.8.4-1 .8-.2.8-.1 1.3.3.8.7 1c.3.2.8.4 1.3.5.3.1.7.1 1 .2.3 0 .7.1.9.2.7.1 1.2.4 1.7.9.4.4.8 1.1 1 1.8.1.5.2 1 .1 1.5s-.2.9-.4 1.3-.6.8-.9 1.1-.8.5-1.3.6z"/><path d="m120.4 17.6c-.1 0-.3 0-.6 0s-.5 0-.6.1c-.2.1-.4.3-.5.6s-.3.9-.5 1.5l-1.1 4.3c-.3 1.2-.9 2.2-1.8 2.8s-1.8.8-2.9.5c-1.3-.3-2.1-.9-2.6-1.9-.5-.9-.6-2-.3-3.3l1.5-5.9c0-.2.1-.4 0-.5 0-.1-.1-.3-.2-.4s-.2-.2-.4-.3c-.1-.1-.3-.1-.4-.2l.2-.6 4.7 1.2-.2.6c-.1 0-.3 0-.4 0s-.3 0-.5 0-.3.1-.4.2-.2.3-.2.5l-1.5 5.8c-.3 1.1-.3 2 0 2.6s.8 1 1.5 1.2 1.4 0 1.9-.4c.6-.5 1-1.2 1.3-2.3l1-3.9c.2-.7.3-1.2.3-1.6s0-.6-.1-.8c-.1-.1-.2-.3-.5-.5s-.4-.3-.5-.3l.2-.6 3.9 1z"/><path d="m131.6 22.3c-.1 0-.3-.1-.5-.1s-.5 0-.7.1-.4.3-.6.6-.4.8-.7 1.4l-3.3 7.7-1.1-.5-1.6-10.6-2.2 5.1c-.3.6-.4 1.1-.5 1.5s-.1.6 0 .9c.1.2.2.3.4.5s.4.3.5.4l-.3.6-3.6-1.6.3-.6c.2 0 .3.1.6.1h.6c.2-.1.4-.3.6-.5.2-.3.4-.8.7-1.5l2.2-5.1c.1-.3.2-.5.2-.8s0-.5 0-.7c-.1-.2-.2-.4-.3-.6s-.3-.3-.5-.5l.3-.6 3.2 1.4 1.4 9.3 1.8-4.1c.3-.6.5-1.2.5-1.5s.1-.6 0-.9c-.1-.2-.2-.3-.4-.5s-.3-.3-.5-.4l.3-.6 3.6 1.6z"/><path d="m131.6 35.3-4.4-2.6.3-.6c.1 0 .3.1.5.2s.4.1.5.1c.2 0 .3 0 .4-.1s.2-.2.3-.4l4.2-7.2c.1-.2.2-.3.2-.5s0-.3-.1-.5c-.1-.1-.2-.2-.3-.4s-.3-.3-.4-.4l.3-.6 4.4 2.6-.3.6c-.1 0-.3-.1-.5-.2s-.3-.1-.5-.1-.3 0-.5.1c-.1.1-.2.2-.3.4l-4.2 7.2c-.1.2-.2.3-.2.5s0 .3.1.5c0 .1.2.2.3.3.2.1.3.3.4.3z"/><path d="m146.6 32.4c-.1-.1-.3-.1-.4-.2-.1 0-.3 0-.5 0s-.4 0-.6.1-.4.2-.6.3c-.3.2-.8.6-1.5 1s-1.4.9-2.2 1.5c-.7.5-1.5 1.1-2.4 1.7s-1.7 1.2-2.5 1.8l-1-.8c.6-1.9 1.3-3.8 2-5.8s1.1-3.3 1.4-4.1c.1-.3.1-.5.1-.7s0-.4-.1-.6c0-.2-.1-.3-.2-.4s-.2-.2-.3-.4l.4-.5 4 3-.4.5c-.4-.2-.7-.3-.9-.4-.2 0-.3 0-.4.1 0 0-.1.1-.1.2s-.1.2-.1.3c-.2.5-.5 1.3-.8 2.4-.4 1.1-.9 2.8-1.7 5 1.2-.9 2.2-1.6 2.9-2.2.8-.6 1.5-1.1 2.1-1.6.3-.2.6-.4.8-.6s.4-.4.5-.5.1-.3 0-.5-.3-.5-.7-.9l.4-.5 3 2.2z"/><path d="m151.6 40.6-.3-.3c.2-.4.4-.9.5-1.4s.1-.9-.1-1.2c-.1-.1-.2-.3-.3-.4-.2-.2-.3-.3-.4-.4l-.9-.9-3.2 3.2.7.7c.2.2.3.3.5.4s.4.1.7.1c.2 0 .4-.1.7-.3s.5-.3.7-.5l.3.3-3.4 3.5-.3-.3c.1-.2.3-.4.5-.8s.3-.6.3-.7c0-.2 0-.5-.1-.6-.1-.2-.2-.4-.4-.6l-.7-.7-2.4 2.4c-.3.3-.4.5-.6.6-.1.2-.2.3-.2.5s.1.3.2.5.3.3.5.6c.1.1.2.2.4.4.2.1.3.3.4.3.1.1.3.2.5.3s.3.1.4.1c.3 0 .8-.2 1.4-.4s1-.4 1.2-.5l.3.3-2.7 2.5-6.2-6 .5-.5c.1.1.2.2.4.3s.3.2.4.2h.5c.1-.1.3-.2.4-.3l5.8-5.9c.1-.1.2-.3.3-.4s.1-.3 0-.5c0-.1-.1-.3-.2-.5s-.2-.3-.3-.4l.5-.5 5.8 5.7z"/><path d="m152.6 55.8-2.1-2.8c.6-1.2 1-2.2 1.3-2.9s.7-1.7 1-2.7l-.2-.3-2.8 2.2c-.2.1-.3.3-.3.4-.1.1-.1.3-.1.5 0 .1.1.2.1.4.1.2.1.3.2.4l-.5.4-3-3.9.5-.4c.1.1.2.2.4.3.1.1.3.2.4.3.2.1.3.1.5.1.1 0 .3-.1.5-.3l6.6-5.1c.2-.1.3-.2.3-.4.1-.1.1-.3.1-.5s-.1-.3-.2-.5-.1-.3-.2-.4l.5-.4 3.1 4.1c.7.9 1.1 1.8 1.1 2.5 0 .8-.4 1.4-1.1 2-.6.5-1.3.8-1.9.8s-1.3-.2-2-.6c-.2.5-.4 1.2-.7 1.8-.3.7-.5 1.4-.8 2.2-.1.2-.2.5-.3.9s-.1.6-.1.8c0 .1.1.2.2.4.1.1.1.2.2.3zm4.2-8.8c.6-.5 1-1 1.1-1.5s-.1-1-.5-1.5l-.3-.4-3.9 3 .3.4c.4.5.9.8 1.4.8.6 0 1.2-.3 1.9-.8z"/><path d="m153.9 59c-.3-.5-.5-1-.6-1.5s-.1-1-.1-1.4l-.7-.1-.3-.5 3.7-2.2.3.5c-.3.3-.6.7-.9 1.1s-.5.8-.7 1.2-.3.8-.3 1.2 0 .8.3 1.2c.3.5.7.8 1.2.9s1 0 1.4-.3c.4-.2.7-.5.8-.9s.2-.9.1-1.5c0-.4-.1-.7-.1-1.1s-.1-.6-.1-.9c0-.7.1-1.3.5-1.9s.9-1 1.5-1.4c.4-.2.8-.4 1.3-.5.4-.1.9-.1 1.3 0s.8.3 1.2.6.7.6 1 1.1c.3.4.4.9.5 1.4s.1.9 0 1.2l.6.1.3.5-3.5 2.1-.3-.5c.3-.3.6-.7.9-1.1s.5-.7.7-1 .3-.7.3-1 0-.7-.2-1c-.2-.4-.6-.6-1-.7s-.9 0-1.3.3c-.4.2-.7.5-.8.9s-.2.9-.1 1.4c0 .3.1.7.1 1.1s.1.7.1 1c0 .7-.1 1.3-.4 1.9s-.8 1-1.5 1.4c-.4.3-.9.4-1.4.5s-1 .1-1.4 0c-.5-.1-.9-.3-1.3-.6-.5-.6-.8-1-1.1-1.5z"/><path d="m158.3 67.2-2.1-4.6.6-.3c.1.1.1.3.3.4.1.2.2.3.3.4s.3.2.4.2.3 0 .5-.1l7.6-3.4c.2-.1.3-.2.4-.3s.2-.3.2-.4 0-.3 0-.5-.1-.4-.1-.5l.6-.3 2.1 4.6-.6.3c-.1-.1-.2-.3-.3-.4-.1-.2-.2-.3-.3-.4s-.3-.2-.4-.2c-.2 0-.3.1-.5.1l-7.6 3.4c-.2.1-.3.2-.4.3s-.2.3-.2.4 0 .3 0 .5.1.4.1.5z"/><path d="m169.2 73.1-.2-.5c.4-.3.9-.7 1.3-1.1.5-.5.7-.8.6-1.1 0-.1-.1-.3-.1-.5s-.1-.4-.1-.5l-.1-.3-8.8 2.9c-.2.1-.3.1-.5.3-.1.1-.2.2-.2.4v.5s0 .4.1.5l-.6.2-1.6-4.9.6-.2c0 .1.1.3.2.5s.2.3.3.4.3.2.4.2.3 0 .5-.1l8.9-2.9-.1-.3c0-.1-.1-.3-.2-.5s-.2-.3-.2-.5c-.1-.2-.5-.4-1.1-.5s-1.2-.1-1.7-.1l-.2-.5 3.2-1.1 2.8 8.5z"/><path d="m173.9 83.2c0-.1-.1-.3-.2-.4s-.2-.2-.3-.3c-.2-.2-.4-.3-.6-.4s-.5-.2-.8-.3c-.6-.2-1.2-.4-1.8-.6s-1.4-.4-2.2-.6c-.5-.1-.9-.2-1.2-.2s-.7 0-1.3.2l-1.6.3c-.2 0-.4.1-.5.2s-.2.2-.3.4c0 .1 0 .2-.1.5v.5l-.6.1-.9-5 .6-.1c0 .1.1.3.2.5s.1.4.2.4c.1.1.3.2.4.3h.5l2.1-.4c.2 0 .3-.1.5-.1.1 0 .3-.1.3-.1.1 0 .2-.1.4-.2.1-.1.3-.2.6-.4.7-.5 1.3-.9 1.9-1.3s1.2-.8 1.7-1.2c.3-.2.5-.4.6-.6.2-.2.3-.4.4-.5s.1-.3.1-.5 0-.3 0-.5l.6-.1 1 5.2-.6.1c-.1-.5-.2-.8-.3-.9-.1-.2-.2-.2-.3-.2s-.2.1-.3.2c-.2.1-.4.3-.8.5-.3.2-.8.5-1.3.9-.6.4-1.2.9-2 1.4 1.8.5 3 .8 3.8 1 .7.2 1.1.3 1.3.2.2 0 .3-.2.4-.3.1-.2.1-.5 0-.9l.6-.1.6 3.3z"/><path d="m95.4 28.4c4.9 0 9.8.6 14.5 1.7 4.6 1.1 9.1 2.6 13.3 4.7 4.2 2 8.1 4.5 11.8 7.4 3 2.4 5.8 5 8.3 7.9h-96c2.5-2.9 5.3-5.5 8.3-7.9 3.6-2.9 7.6-5.4 11.8-7.4 4.3-2.1 8.7-3.6 13.3-4.7 5-1.2 9.8-1.7 14.7-1.7m-.1-1.1c-20.3 0-38.4 9.3-50.4 23.9h100.8c-12-14.6-30.1-23.9-50.4-23.9z"/></g><path d="m95.4 292.1c-5.9-9.8-9.1-21.2-9.1-32.8v-205.2h18.1v205.2c.1 11.6-3 23-9 32.8z" fill="#e2ad0f"/><path d="m103.8 54.6v96.6 7.6 100.3c0 11.3-2.9 22.2-8.5 31.8-5.6-9.6-8.5-20.5-8.5-31.8v-100.2-7.6-96.7zm1.1-1.1h-19.2v97.7 7.6 100.3c0 12.5 3.5 24.2 9.6 33.9 6.1-9.8 9.6-21.4 9.6-33.9v-100.2-7.6z" fill="#0e0465"/><path d="m95 57.8h.8v215.8h-.8z" fill="#0e0465"/><path d="m147.5 53.4h-104.2c-6.1 8.1-10.3 17.6-12 28.1l64.2-21.3 64.2 21.3c-1.8-10.4-6.1-20-12.2-28.1z" fill="#0e0465"/><path d="m64.2 70.7v56.3c0 17.3 14 31.3 31.3 31.3s31.3-14 31.3-31.3v-56.3z" fill="#0e0465"/><path d="m76.5 76.9-.7.5h-2.1v-2.1l.6-.7v-.8h-4.1v.8l.6.7v2.1h-2.1l-.7-.5h-.8v4h.8l.7-.6h2.1v2.2l-.6.6v.8h4.1v-.8l-.6-.6v-2.2h2.1l.7.6h.8v-4z" fill="#fff"/><path d="m122.5 76.9-.7.5h-2.1v-2.1l.6-.7v-.8h-4.1v.8l.6.7v2.1h-2.1l-.7-.5h-.8v4h.8l.7-.6h2.1v2.2l-.6.6v.8h4.1v-.8l-.6-.6v-2.2h2.1l.7.6h.8v-4z" fill="#fff"/><path d="m76.5 129.2-.7.6h-2.1v-2.1l.6-.7v-.8h-4.1v.8l.6.7v2.1h-2.1l-.7-.6h-.8v4.1h.8l.7-.6h2.1v2.1l-.6.7v.8h4.1v-.8l-.6-.7v-2.1h2.1l.7.6h.8v-4.1z" fill="#fff"/><path d="m122.5 129.2-.7.6h-2.1v-2.1l.6-.7v-.8h-4.1v.8l.6.7v2.1h-2.1l-.7-.6h-.8v4.1h.8l.7-.6h2.1v2.1l-.6.7v.8h4.1v-.8l-.6-.7v-2.1h2.1l.7.6h.8v-4.1z" fill="#fff"/><path d="m117.4 90.4-3.4 2.9v.1h-10.3v-12l1.8-1.9v-3.8h-20.1v3.8l2.1 2.3v11.6h-10.6v-.1l-3.5-2.9h-3.8v19.4h3.8l3.4-2.9h10.7v40.2l-2.1 2.3v3.8h20.1v-3.8l-1.8-1.9v-40.6h10.4l3.3 2.9h3.9v-19.4z" fill="#e2ad0f"/><path d="m89.7 50.6-6.1-30.2 5.9-5.9h11.9l5.9 5.9-6.1 30.2z" fill="#e2ad0f"/><path d="m101.5 14h-6.2-6.2l-6.2 6.2 6.2 30.9h6.2 6.2l6.2-30.9zm-11.5 1.1h4v34.9h-4zm10.6 34.9h-3.8v-34.9h4.2l5.5 5.4z" fill="#0e0465"/><circle cx="95.4" cy="6.3" fill="#006" r="6.3"/><path d="m136.6 180.5-11-21.4c-9.3 4.2-19.5 6.6-30.4 6.6-10.8 0-21-2.3-30.2-6.5l-10.8 21.5c12.5 5.8 26.4 9 41 9 14.9 0 28.9-3.3 41.4-9.2z" fill="#fff"/><path d="m95.4 190.2c-14.5 0-28.4-3.1-41.3-9.1l-.5-.2 11.3-22.5.5.2c9.4 4.3 19.5 6.4 30 6.4s20.6-2.2 30.1-6.5l.5-.2 11.5 22.4-.5.2c-13.2 6.2-27.1 9.3-41.6 9.3zm-40.4-9.8c12.7 5.8 26.2 8.7 40.3 8.7h.1c14.1 0 27.7-3 40.5-8.9l-10.5-20.5c-9.5 4.2-19.6 6.4-30.1 6.4-10.4 0-20.5-2.1-29.9-6.3z"/><path d="m75.9 175c-16.3-3.8-30.9-12.3-42.4-24.6-11.5-12.4-18.9-27.6-21.5-44.2l15.8-7.4c2.4 28.6 22.8 52.6 50.6 59.7z" fill="#fff"/><path d="m27.3 99.6c2.8 28.3 22.9 52 50.4 59.2l-2.3 15.4c-7.9-1.9-15.4-4.9-22.4-9s-13.5-9.2-19-15.2c-5.6-6-10.3-12.8-13.9-20.1-3.6-7.4-6.2-15.2-7.5-23.4zm.5-1.4c-.1 0-.2 0-.2 0l-15.8 7.4c-.2.1-.3.3-.3.6 5.4 34.1 31.1 61.5 64.4 69.2h.1c.3 0 .5-.2.6-.5l2.5-16.5c0-.3-.1-.6-.4-.6-27.2-6.9-47.7-30.5-50.2-59.2-.2-.2-.4-.4-.7-.4z"/><path d="m8.3 109.5c-.2 0-.2-.1-.3-.1 0 0 0-.1 0-.2l1.2-1.4c1.1-1.3 2.5-2.4 4.1-3.1l13.8-6.3h.2s.2 0 .3.1.1.2.1.3l-1.8 8.5c-.3 1.4-1.5 2.3-3 2.3z" fill="#fff"/><path d="m27.1 99-1.7 8.1c-.2 1.1-1.2 1.9-2.4 1.9h-14l.7-.9c1.1-1.2 2.4-2.3 3.9-2.9zm.3-1.3c-.1 0-.3 0-.4.1l-13.8 6.3c-1.7.8-3.1 1.9-4.3 3.2l-1.2 1.4c-.4.5-.1 1.3.6 1.3h14.7c1.7 0 3.2-1.2 3.5-2.8l1.8-8.5c.1-.5-.3-1-.9-1z"/><path d="m15 120c-.1 0-.4-.2-.6-.4-.5-.3-1.1-.8-1.8-.8-.3 0-.6.1-.9.2-.3.1-.6.2-.8.2-.3 0-.5-.1-.8-.2-.4-.2-.9-.4-1.7-.4-.7 0-1.3.2-1.8.3-.4.1-.8.2-1.2.2-.3 0-.7-.1-1.1-.2h-.1c-.7-.3-1-.4-1.5-.4-.3 0-.5 0-.9.1-.3 0-.7.1-1.2.2 0-.2 0-.9.8-2.7 1.4-3.2 3.6-6.4 4.2-6.6.7-.1 2.6-.1 5.9-.1h5.4 3.9.8c-2.7 2.9-4.3 5-6 9.7-.3.8-.6.9-.6.9z" fill="#fff"/><path d="m11.4 110h5.4 3.5c-2.2 2.5-3.7 4.7-5.2 8.9-.1.2-.1.3-.2.4-.1 0-.1-.1-.2-.1-.5-.4-1.2-.9-2.2-.9-.4 0-.7.1-1.1.2-.2.1-.4.2-.6.2s-.3-.1-.6-.2c-.4-.2-1-.4-1.9-.4-.8 0-1.4.2-1.9.3-.4.1-.7.2-1.1.2-.3 0-.6-.1-.9-.2h-.1c-.7-.3-1.1-.4-1.7-.4-.3 0-.6 0-1 .1-.1 0-.3 0-.5.1.2-.7.7-2.1 1.7-4 1.3-2.3 2.4-3.7 2.8-4.1 1.3-.1 4.7-.1 5.8-.1zm0-1.1c-2.7 0-5.1 0-5.9.1-1.5.2-7.2 10.4-5 10.4h.1c1.2-.2 1.7-.3 2.1-.3s.6.1 1.4.4c.5.2.9.3 1.3.3 1 0 1.8-.5 3-.5s1.7.6 2.5.6c.3 0 .6-.1 1.1-.3.2-.1.5-.1.7-.1 1.1 0 1.8 1.2 2.5 1.2.3 0 .7-.3 1.1-1.2 1.8-5 3.5-7 6.8-10.5-.3 0-1.1 0-2.1 0-2.6-.1-6.4-.1-9.6-.1z"/><path d="m114 175.1s-.1 0-.1-.1l-2.5-16.3c0-.1 0-.1.1-.1 28-6.9 48.6-30.8 51.1-59.5 0-.1.1-.1.1-.1l15.6 7.3.1.1c-2.7 16.6-10.2 31.9-21.8 44.3-11.5 12.2-26.3 20.7-42.6 24.4z" fill="#fff"/><path d="m163.1 99.7 14.8 6.9c-1.3 8.2-3.9 16.1-7.6 23.5-3.7 7.3-8.4 14.1-14 20.1s-12.1 11.1-19.2 15.2-14.7 7.1-22.7 9l-2.4-15.4c27.8-7 48.3-30.7 51.1-59.3m-.4-1.3c-.3 0-.6.3-.7.6-2.6 28.8-23.3 52.3-50.7 59-.3.1-.6.4-.5.8l2.5 16.3c0 .3.3.6.7.6h.1c33.4-7.6 59.4-34.9 64.9-69.2 0-.3-.1-.6-.4-.7l-15.6-7.4c-.1 0-.2 0-.3 0z"/><path d="m167.4 109.5c-1.5 0-2.7-1-3-2.3l-1.8-8.5c0-.1 0-.2.1-.3s.2-.1.3-.1.1 0 .2 0l13.8 6.3c1.6.7 3 1.8 4.1 3.1l1.2 1.4c.1.1.1.2 0 .2 0 0-.1.1-.3.1z" fill="#fff"/><path d="m163.3 99 13.5 6.2c1.5.7 2.9 1.7 3.9 2.9l.7.9h-14c-1.2 0-2.2-.8-2.4-1.9zm-.3-1.3c-.6 0-1 .5-.9 1.1l1.8 8.5c.3 1.6 1.8 2.8 3.5 2.8h14.7c.7 0 1.1-.8.6-1.3l-1.2-1.4c-1.2-1.4-2.6-2.5-4.3-3.2l-13.8-6.3c-.1-.1-.3-.2-.4-.2z"/><path d="m175.4 120c-.1 0-.3-.2-.6-.9-1.7-4.7-3.3-6.8-6-9.7h.8 3.9 5.4c3.2 0 5.2 0 5.9.1.6.2 2.8 3.3 4.2 6.6.8 1.8.8 2.5.8 2.7-.5-.1-.9-.1-1.2-.2-.4-.1-.6-.1-.9-.1-.4 0-.8.1-1.5.4h-.1c-.4.1-.7.2-1.1.2s-.8-.1-1.2-.2c-.5-.1-1.1-.3-1.8-.3-.8 0-1.3.2-1.7.4-.3.1-.5.2-.8.2-.2 0-.5-.1-.8-.2-.3-.1-.6-.2-.9-.2-.8 0-1.4.4-1.8.8-.2.2-.4.4-.6.4z" fill="#fff"/><path d="m179 110c1.2 0 4.5 0 5.7.1.4.3 1.5 1.7 2.8 4.1 1.1 2 1.6 3.3 1.7 4-.2 0-.4 0-.5-.1-.4-.1-.7-.1-1-.1-.5 0-.9.1-1.7.4h-.1c-.3.1-.6.2-.9.2s-.7-.1-1.1-.2c-.5-.1-1.1-.3-1.9-.3-.9 0-1.5.2-1.9.4-.3.1-.4.2-.6.2-.1 0-.3-.1-.6-.2-.4-.2-.7-.2-1.1-.2-1 0-1.7.5-2.2.9-.1 0-.1.1-.2.1 0-.1-.1-.2-.2-.4-1.5-4.3-3-6.4-5.2-8.9h3.5zm0-1.1c-3.2 0-7 0-9.3 0-1.1 0-1.9 0-2.1 0 3.2 3.5 4.9 5.4 6.8 10.5.4.9.8 1.2 1.1 1.2.7 0 1.4-1.2 2.5-1.2.2 0 .4 0 .7.1.4.2.8.3 1.1.3.8 0 1.3-.6 2.5-.6s2 .5 3 .5c.4 0 .8-.1 1.3-.3.8-.3 1-.4 1.4-.4s.8.1 2.1.3h.1c2.2 0-3.5-10.2-5-10.4-1.1 0-3.5 0-6.2 0z"/><path d="m60.3 170 9.6 3.6-14.5 6z"/><path d="m60.6 170.6 7.8 3-11.8 4.9zm-.6-1.3-5.7 11.4 17.1-7.1z"/><path d="m121 173.6 9.6-3.6 4.8 9.6z"/><path d="m130.3 170.6 3.9 7.9-11.8-4.9zm.6-1.3-11.4 4.3 17.1 7.1z"/><path d="m19.1 121.9c-.2-.5-.3-1-.3-1.5s0-.9.2-1.3l-.7-.2-.2-.5 3.8-1.5.2.5c-.3.3-.6.5-1 .9-.3.3-.6.6-.9 1s-.4.7-.5 1.1-.1.7.1 1.1c.2.5.5.9.9 1 .4.2.9.1 1.4 0 .4-.2.7-.4.9-.7s.3-.8.3-1.4c0-.4 0-.7 0-1s0-.6.1-.9c.1-.6.3-1.2.8-1.7.4-.5 1-.8 1.6-1.1.4-.2.8-.2 1.3-.2.4 0 .9.1 1.2.2.4.1.7.4 1.1.7.3.3.6.7.7 1.2.2.5.2.9.2 1.4s-.1.8-.1 1.1l.6.2.2.5-3.6 1.4-.2-.5c.3-.3.7-.5 1-.9.3-.3.6-.6.8-.9s.4-.6.4-.9c.1-.3.1-.6-.1-.9-.2-.4-.4-.7-.8-.8s-.8-.1-1.3 0c-.4.2-.7.4-.9.7s-.3.8-.3 1.3v1s0 .6-.1.9c-.1.7-.3 1.2-.7 1.7s-.9.8-1.7 1.1c-.5.2-.9.3-1.4.3s-.9-.1-1.3-.3-.8-.5-1.1-.8c-.1-.4-.4-.8-.6-1.3z" fill="#0e0465"/><path d="m25.5 134.8-2.1-4.2.6-.3c.1.2.3.4.5.6s.4.3.5.3c0 0 .1 0 .1-.1s.1-.1.2-.1l1.7-1.7-1.4-2.7c-.2 0-.5.1-.8.1-.3.1-.6.1-.8.2-.3.1-.5.1-.6.2s-.2.1-.3.1c-.2.1-.2.2-.3.5 0 .2.1.6.2 1l-.6.3-1.6-3.2.6-.3c.1.1.2.2.3.4.1.1.2.2.3.3.2.1.4.1.6.2h.7c1.5-.3 3.1-.5 4.6-.8s3.2-.5 5.1-.9l.6 1.1c-1.9 1.9-3.4 3.3-4.5 4.4s-2 2-2.7 2.7c-.1.1-.2.3-.3.4s-.1.3-.2.5v.4c0 .2.1.3.1.4zm2-6.1 3-3-4.2.8z" fill="#0e0465"/><path d="m37.4 137.4c-.5.3-1 .6-1.5.7s-1 .1-1.4-.1c-.5-.1-.9-.4-1.2-.7-.4-.3-.7-.7-1-1.2l-.4-.6-2.6 1.8c-.2.1-.3.2-.4.3s-.1.3-.1.4 0 .2.1.4.1.3.2.4l-.5.3-2.6-3.9.5-.3c.1.1.2.2.3.3s.2.2.3.3c.2.1.3.1.4.1s.3-.1.5-.2l6.6-4.4c.2-.1.3-.2.4-.3s.1-.3.1-.5c0-.1 0-.3-.1-.5s-.1-.3-.2-.4l.5-.3 2.7 4c.6.9.9 1.8.8 2.5-.2.7-.6 1.3-1.4 1.9zm-1.7-1.8c.7-.5 1.2-.9 1.3-1.4.2-.4.1-.9-.3-1.5l-.3-.4-4.1 2.8.1.2c.4.6.8.9 1.3.9.7.1 1.3-.1 2-.6z" fill="#0e0465"/><path d="m34.1 146.6-3-3.7.5-.4.3.3c.2.2.3.3.3.3.2.1.3.1.4 0 .1 0 .3-.1.4-.3l6.2-5c.1-.1.3-.2.3-.4.1-.1.1-.3.1-.5 0-.1-.1-.3-.1-.4s-.2-.3-.2-.5l.5-.4 3 3.7-.5.4c-.1-.1-.2-.2-.3-.3s-.3-.2-.4-.3c-.2-.1-.3-.1-.4 0-.1 0-.3.1-.4.3l-6.2 5c-.1.1-.3.2-.3.4-.1.1-.1.3-.1.5 0 .1.1.2.2.4s.2.3.3.4z" fill="#0e0465"/><path d="m46.2 147.1-.3-.3c.2-.4.4-.8.5-1.3s.1-.9 0-1.2c-.1-.1-.2-.3-.3-.4-.1-.2-.3-.3-.4-.4l-.9-.9-3.1 3 .6.6c.2.2.3.3.5.4s.4.1.6.1.4-.1.7-.3c.3-.1.5-.3.7-.4l.3.3-3.3 3.3-.3-.3c.1-.2.3-.4.5-.7s.3-.5.3-.7 0-.4-.1-.6-.2-.4-.4-.5l-.6-.6-2.3 2.3c-.2.2-.4.4-.5.6s-.2.3-.2.5 0 .3.2.4c.1.1.3.3.5.6.1.1.2.2.4.4.1.1.3.3.4.3.1.1.3.2.4.3s.3.1.4.1c.3 0 .8-.2 1.3-.4.6-.2.9-.4 1.2-.5l.3.3-2.6 2.3-5.7-5.8.4-.4c.1.1.2.2.4.3s.3.2.4.2h.4c.1 0 .3-.2.4-.3l5.6-5.6c.1-.1.2-.3.3-.4s.1-.3 0-.5c0-.1-.1-.3-.2-.4-.1-.2-.2-.3-.2-.4l.4-.4 5.4 5.5z" fill="#0e0465"/><path d="m56 152.1c-.1-.1-.3-.1-.4-.2-.2-.1-.4-.1-.6-.1s-.4.1-.7.4c-.3.2-.6.6-1 1.1l-5 6.3-.9-.7 1.1-10.2-3.2 4.1c-.4.5-.7.9-.8 1.2-.2.3-.2.6-.2.8s.1.3.2.6c.1.2.3.4.3.5l-.4.5-2.9-2.3.4-.5c.1.1.3.2.5.3s.4.1.6.1.4-.1.7-.3c.2-.2.6-.6 1-1.2l3.3-4.2c.2-.2.3-.4.4-.6s.1-.4.1-.7c0-.2 0-.4-.1-.6s-.2-.4-.3-.6l.4-.5 2.6 2-1 8.9 2.6-3.3c.4-.5.7-.9.9-1.2.1-.3.2-.6.2-.8s-.1-.4-.2-.6-.2-.4-.3-.5l.4-.5 2.9 2.3z" fill="#0e0465"/><path d="m61.5 158.3-.4-.3c.1-.5.2-1 .3-1.6 0-.6 0-1-.2-1.2-.1-.1-.2-.2-.4-.3s-.3-.2-.4-.3l-.3-.1-4.5 7.6c-.1.2-.2.3-.2.5s0 .3.1.5c.1.1.2.2.3.3s.3.3.4.3l-.3.5-4.1-2.5.3-.5c.1 0 .3.1.5.2s.3.1.4.1c.2 0 .3 0 .4-.1s.2-.2.3-.4l4.6-7.6-.3-.1c-.1-.1-.3-.1-.4-.2-.2-.1-.3-.2-.4-.2-.2-.1-.6 0-1.1.4-.5.3-1 .7-1.3 1l-.4-.3 1.7-2.8 7.2 4.3z" fill="#0e0465"/><path d="m62.5 167.6-4.3-2.1.3-.6c.1 0 .3.1.5.2s.3.1.4.1c.2 0 .3-.1.4-.1.1-.1.2-.2.3-.4l3.4-7.2c.1-.2.1-.3.1-.5 0-.1 0-.3-.1-.4s-.2-.2-.3-.3-.3-.2-.4-.3l.3-.6 4.3 2.1-.3.6c-.1 0-.3-.1-.4-.1-.2 0-.3-.1-.5-.1s-.3 0-.4.2-.2.3-.3.4l-3.4 7.2c-.1.2-.1.3-.1.5 0 .1 0 .3.1.4s.2.2.3.3c.2.1.3.2.4.3z" fill="#0e0465"/><path d="m72.5 171.4-4.4-1.6.2-.6c.2 0 .5.1.8.1s.5 0 .5-.1v-.1s0-.1 0-.2l.1-2.4-2.8-1c-.1.2-.3.4-.5.6-.2.3-.3.5-.5.7-.2.3-.3.4-.3.6-.1.1-.1.2-.1.3-.1.2 0 .3.1.5s.4.4.8.6l-.2.6-3.3-1.2.2-.6c.1 0 .3.1.5.1s.3 0 .4 0c.2-.1.4-.2.6-.3s.3-.3.5-.5c.9-1.2 1.9-2.5 2.9-3.7.9-1.2 2-2.6 3.2-4.1l1.2.4c-.1 2.7-.2 4.8-.3 6.3s-.1 2.8-.2 3.8v.5c0 .1.1.3.2.5.1.1.2.2.3.3s.3.2.4.2zm-2.8-5.8.2-4.2-2.5 3.4z" fill="#0e0465"/><path d="m127.1 159.1-.5.2c-.3-.3-.6-.7-1.1-1s-.8-.4-1.1-.4c-.1 0-.3.1-.5.1-.2.1-.4.1-.5.2l-1.1.4 1.5 4 .8-.3.6-.3s.3-.3.4-.6c0-.1.1-.4 0-.7 0-.3 0-.6-.1-.8l.5-.2 1.7 4.4-.5.2c-.1-.2-.3-.4-.5-.7s-.4-.5-.5-.5c-.2-.1-.4-.2-.6-.2s-.4 0-.7.1l-.8.3 1.2 3c.3.6.5 1 .7 1.1s.6 0 1.2-.2 1-.4 1.2-.6.4-.3.4-.5c.1-.3.2-.8.2-1.4s.1-1 0-1.3l.4-.2 1.1 3.3-8 3.1-.2-.6c.1 0 .3-.1.4-.2.2-.1.3-.2.4-.3s.2-.3.2-.4 0-.3-.1-.5l-1.1-2.9-3 1.2c-.1.8-.1 1.4-.1 1.8v.9.8s0 .2 0 .2c0 .1.1.2.2.2s.2.1.4 0h.4s.3 0 .4-.1l.2.6-3.5 1.4-.2-.6c.1 0 .2-.1.4-.3.2-.1.3-.2.3-.3.1-.2.2-.4.3-.6s.1-.5.1-.8c.1-1.5.3-2.9.4-4.5.1-1.5.3-3.1.4-4.8-.1 0-.3 0-.6.1-.2.1-.5.1-.6.2l-.2-.6 8.7-3.3zm-5.2 5.2-1.8-4.7-.5.2-.4 5.6z" fill="#0e0465"/><path d="m133.6 153.3c.7.1 1.4.4 2.1.9s1.3 1.2 1.8 2.1c.5.8.8 1.6.8 2.4.1.8 0 1.5-.2 2.1s-.6 1.2-1 1.8c-.5.5-1 1-1.6 1.3l-4 2.3-.3-.5c.1-.1.3-.2.4-.3.2-.1.3-.2.3-.3.1-.1.1-.3.1-.4s-.1-.3-.2-.5l-4-6.9c-.1-.2-.2-.3-.3-.4s-.3-.1-.5-.1-.4 0-.6.1-.3.1-.4.2l-.3-.5 4.3-2.5c.5-.3 1-.5 1.6-.6.6-.2 1.2-.3 2-.2zm2.8 7.7c0-.5-.1-1-.3-1.5-.2-.6-.5-1.2-.9-1.8s-.8-1.2-1.2-1.7-.9-.8-1.3-1.1-.9-.4-1.3-.4-.9.1-1.3.3c-.1.1-.3.2-.4.3-.2.1-.3.2-.4.2l4.3 7.4c.1.2.2.3.3.4s.2.2.4.2c.1 0 .3.1.4 0 .2 0 .3-.1.5-.2.4-.3.7-.6.9-.9.3-.3.4-.7.3-1.2z" fill="#0e0465"/><path d="m144.9 157.6-4.1 3-.4-.5c.1-.1.2-.2.4-.3s.3-.3.3-.3c.1-.2.1-.3.1-.4s-.1-.3-.2-.5l-4.7-6.4c-.1-.1-.2-.3-.3-.3-.1-.1-.3-.1-.5-.1-.1 0-.3.1-.5.1-.2.1-.4.1-.5.2l-.4-.5 4.1-3 .4.5c-.1.1-.2.2-.4.3-.1.1-.3.3-.3.4-.1.2-.1.3-.1.5s.1.3.2.5l4.7 6.4c.1.2.2.3.4.3.1.1.3.1.5.1.1 0 .3-.1.4-.2.2-.1.4-.2.5-.2z" fill="#0e0465"/><path d="m146.7 145.2-.4.4c-.4-.2-.9-.4-1.5-.6-.6-.1-1-.1-1.3 0-.1.1-.3.2-.5.3s-.3.3-.5.4l-1.2 1 2.9 3.3.7-.6c.2-.2.4-.4.5-.6s.2-.4.2-.6-.1-.4-.2-.7-.3-.6-.4-.7l.4-.3 3.1 3.6-.4.3c-.2-.2-.4-.3-.7-.5s-.6-.3-.7-.3c-.2 0-.4 0-.6.1s-.4.2-.6.4l-.7.6 2.4 2.8c.1.1.3.3.4.3.1.1.3.1.5 0 .1 0 .2-.1.4-.2s.3-.2.5-.3l.4.5-4 3.5-.4-.5c.1-.1.2-.2.4-.4.1-.2.2-.3.3-.4.1-.2.1-.3.1-.5s-.1-.3-.3-.4l-5.2-6c-.1-.1-.2-.2-.4-.3-.1-.1-.3-.1-.5 0-.1 0-.3.1-.5.2s-.3.2-.4.2l-.4-.5 6.7-5.9z" fill="#0e0465"/><path d="m156.4 146.8-3.8 4-.5-.4c.1-.1.2-.3.3-.4s.2-.3.3-.4c.1-.2.1-.3 0-.5 0-.1-.2-.3-.3-.4l-5.8-5.4c-.1-.1-.3-.2-.4-.3s-.3 0-.5 0c-.1 0-.3.1-.5.3-.2.1-.3.2-.5.3l-.5-.4 3.8-4 .5.4c-.1.1-.2.3-.3.4-.1.2-.2.3-.3.5s-.1.3 0 .5c.1.1.2.3.3.4l5.8 5.4c.1.1.3.2.4.3s.3 0 .5 0c.1 0 .3-.1.4-.3.2-.1.3-.3.5-.4z" fill="#0e0465"/><path d="m159.3 136.3-.4.5c3.7 4.7-.3 7.3-4.5 3.7-1.2-.9-2.3-2-2.7-3-.8-1.5.3-3.2 1.9-3.3.8 0 1.8.2 3 .7l.4-.5-3.3-2.4-.4.5.1.6c-4 1.6-4.2 6.8-.9 9.4 3.3 2.8 8.6 1.4 9.1-3.1l.6-.1.4-.5z" fill="#0e0465"/><path d="m168.7 128.4-2.7 4.7-.5-.3c.1-.2.2-.5.3-.9.1-.3.1-.5 0-.6 0 0-.1 0-.1-.1 0 0-.1 0-.2 0l-2.4-.4-1.7 3c.1.2.3.4.5.6l.6.6.5.5s.2.1.2.2c.1.1.3.1.5-.1.2-.1.5-.4.8-.9l.5.3-2 3.5-.5-.3c.1-.1.1-.3.2-.5s.1-.3.1-.5-.1-.4-.2-.6-.2-.4-.4-.6c-1-1.2-2.1-2.4-3.1-3.6s-2.2-2.5-3.4-4l.7-1.2c2.7.5 4.8.8 6.3 1.1s2.8.5 3.8.7h.5s.3-.1.5-.2c.1-.1.3-.2.4-.3s.2-.3.3-.4zm-6.5 2.2-4.2-.8 2.8 3.2z" fill="#0e0465"/><path d="m164.8 116.5-.2.5c-.5 0-1.1 0-1.7.1s-1 .3-1.2.5c-.1.1-.2.3-.3.5s-.2.4-.2.5l-.1.3 8.2 3.3c.2.1.3.1.5.1s.3-.1.5-.2c.1-.1.2-.2.3-.4s.2-.4.3-.5l.6.2-2.1 5.1-.6-.2c0-.1.1-.3.2-.6.1-.2.1-.4.1-.5 0-.2-.1-.3-.2-.5s-.3-.2-.4-.3l-8.2-3.3-.1.3c-.1.1-.1.3-.2.5s-.1.4-.2.5c-.1.3.1.6.5 1.2.4.5.8.9 1.2 1.2l-.2.5-3-1.2 3.6-8.9z" fill="#0e0465"/><path d="m85.3 168.3.9.1c0 .2-.1.5-.1.8s-.1.6-.1.9l-.5 4.4v.4c0 .1.1.2.2.3.1 0 .2.1.4.2s.3.1.5.1v.6l-4.2-.5.1-.6h.5s.4 0 .5 0 .2-.1.3-.2.1-.2.1-.4l.5-4.6-1.3-.1.1-.7" fill="#0e0465"/><path d="m94.2 172.1c.1.9 0 1.6-.3 2.3-.5 1.5-2.3 2.5-4.3 1.9-.3-.1-.5-.3-.8-.4-.2-.1-.3-.3-.2-.6.1-.2.3-.4.5-.4.4-.1.7 0 1 .3.1.2.2.4.4.5.3.3.7.3 1 .1.3-.3.8-1.5.6-1.9 0-.1-.1-.2-.3-.2s-.4.1-.7.1c-1.8.1-2.9-1.3-2.4-3 .4-1.4 2.1-2.4 3.6-1.9 1.1.4 1.6 1.3 1.8 2.4.1.3.1.7.1.8zm-1.8-.6c-.1-.7 0-1.3-.3-1.8s-.9-.5-1.2-.1c-.1.1-.1.3-.2.4-.2.8-.3 1.7-.2 2.5 0 .3.2.5.4.6.5.2 1.2-.1 1.3-.6.2-.4.2-.8.2-1z" fill="#0e0461"/><path d="m98.2 168.8h.9v.8s0 .7 0 1l.2 4.4c0 .1 0 .3.1.4 0 .1.1.2.2.2s.2.1.4.1h.5v.6l-4.2.2v-.6c.1 0 .3 0 .5-.1.2 0 .4-.1.5-.1s.2-.1.2-.2.1-.2.1-.4l-.2-4.6h-1.3v-.7" fill="#0e0465"/><path d="m104.6 168.2.9-.1c0 .2 0 .5.1.8 0 .3.1.6.1.9l.5 4.4c0 .1.1.3.1.3.1.1.1.2.3.2.1 0 .2.1.4.1s.4 0 .5 0l.1.6-4.2.5-.1-.6c.1 0 .3 0 .5-.1.2 0 .4-.1.4-.2.1 0 .2-.1.2-.2s.1-.2 0-.4l-.5-4.6-1.3.1-.1-.7" fill="#0e0465"/><path d="m70.9 181.2.3.6v.7c-.1.3-.2.6-.4.7-.2.2-.4.3-.6.4-.3.1-.6.1-.9 0-.3 0-.7-.1-1.1-.2l-2.8-.8.1-.3h.3.3c.1 0 .2 0 .2-.1s.1-.1.1-.3l1.2-4.5c0-.1 0-.2 0-.3s-.1-.2-.1-.2c-.1-.1-.1-.1-.2-.2-.1 0-.2-.1-.3-.1l.1-.3 3 .8c.7.2 1.2.5 1.6.8.3.3.3.7.2 1.2-.1.2-.1.4-.3.5-.1.1-.3.2-.4.3-.2.1-.3.1-.5.1s-.4 0-.6 0v.1c.2.1.4.2.6.3-.1.5.1.6.2.8zm-1.3.8c.1-.4.1-.8 0-1.1s-.4-.5-.9-.6c0 0-.1 0-.2 0s-.1 0-.2 0l-.6 2.3c0 .1 0 .2.1.3s.2.2.4.2c.3.1.6 0 .8-.1.2-.3.4-.6.6-1zm.5-3.1c.1-.3.1-.6 0-.9-.1-.2-.3-.4-.7-.5 0 0-.1 0-.2 0s-.1 0-.2 0l-.6 2.3.2.1c.4.1.7.1 1-.1.2-.2.4-.5.5-.9z" fill="#0e0465"/><path d="m77.5 185.7-3-.6.1-.3h.5s.3 0 .3-.1c0 0 0 0 0-.1v-.1l-.2-1.5-2-.4c-.1.1-.1.2-.2.4-.1.1-.2.3-.2.4-.1.2-.1.3-.2.3v.1c0 .1 0 .2.1.3s.3.2.6.3l-.1.3-2.3-.5.1-.3h.3.3c.1 0 .2-.1.3-.2s.2-.2.3-.3c.5-.7.9-1.6 1.5-2.3.5-.8 1-1.7 1.7-2.6l.8.2c.2 1.6.3 2.8.4 3.7s.2 1.7.3 2.3c0 .1 0 .2.1.3 0 .1.1.2.2.3s.1.1.2.2c.1 0 .2.1.2.1h-.1zm-2.4-3.2-.3-2.5-1.3 2.2z" fill="#0e0465"/><path d="m84.5 184.2c-.1 0-.2 0-.2 0-.1 0-.1 0-.2 0s-.2.1-.2.2-.1.2-.1.3l-.1.7v.3.3c-.3.1-.7.3-1.2.3-.5.1-1 .1-1.5 0-.4-.1-.8-.2-1.1-.4s-.6-.4-.8-.8c-.2-.3-.4-.7-.5-1.1s-.1-.9 0-1.5c.1-.5.2-.9.4-1.3s.5-.7.8-1 .7-.4 1.1-.5.8-.1 1.3 0c.3 0 .6.1.8.3.3.1.5.3.6.4l.3-.2h.3l-.3 2.4h-.3c-.1-.7-.3-1.3-.5-1.7s-.5-.6-1-.6c-.5-.1-.9.1-1.2.6s-.6 1.1-.7 2.1c-.1.9-.1 1.8.1 2.3.2.6.5.9 1 .9h.6c.2 0 .3-.1.4-.2l.2-1.3c0-.1 0-.2 0-.3s-.1-.1-.2-.2c-.1 0-.2-.1-.3-.1s-.2-.1-.3-.1v-.3l2.9.4z" fill="#0e0465"/><path d="m91.7 181.2c-.1 0-.2 0-.3 0s-.3.1-.4.1c-.1.1-.2.2-.2.4s-.1.5-.1.9l-.2 2.4c0 .7-.3 1.2-.7 1.7-.4.4-1 .6-1.8.5s-1.5-.3-1.9-.7-.6-1-.5-1.8l.3-3.3c0-.1 0-.2 0-.3s-.1-.1-.2-.2c-.1 0-.1-.1-.2-.1s-.2 0-.2-.1v-.3l3 .2v.3c-.1 0-.2 0-.3 0s-.2 0-.3 0-.2.1-.2.2-.1.2-.1.3l-.2 3.3c0 .6 0 1.1.3 1.5s.6.5 1 .5.8-.1 1.1-.4.4-.7.5-1.5l.2-2.2c0-.4 0-.7 0-.9s-.1-.3-.2-.4-.2-.1-.3-.2-.3-.1-.3-.1v-.3l2.5.2z" fill="#0e0465"/><path d="m94.9 187.4-3.2-.1v-.3h.3.3c.1 0 .2-.1.2-.2s.1-.2.1-.3l.1-4.7c0-.1 0-.2 0-.3s-.1-.1-.2-.2c-.1 0-.2-.1-.3-.1s-.2-.1-.3-.1v-.3l3.2.1v.3c-.1 0-.2 0-.3 0s-.2 0-.3.1c-.1 0-.2.1-.2.2s0 .2-.1.3l-.1 4.7v.3s.1.1.2.2c0 0 .1.1.3.1h.3z" fill="#0e0465"/><path d="m100.7 181.5c.3.3.5.6.7 1s.3.9.3 1.5 0 .9-.2 1.3c-.1.4-.3.8-.6 1.1s-.6.6-.9.8-.8.3-1.3.3c-.4 0-.8 0-1.2-.2-.4-.1-.7-.3-1-.6s-.5-.6-.7-1-.3-.8-.3-1.3 0-1 .2-1.5c.1-.4.3-.8.6-1.1s.6-.5.9-.7c.4-.2.7-.3 1.2-.3.4 0 .8 0 1.2.2.5 0 .8.2 1.1.5zm-.8 4.6c.1-.3.2-.6.2-.9s0-.7 0-1.2c0-.4 0-.7-.1-1.1-.1-.3-.1-.6-.3-.9-.1-.3-.3-.5-.5-.6-.2-.2-.4-.2-.7-.2-.5 0-.8.3-1 .8s-.3 1.2-.3 2.3c0 .4 0 .8.1 1.1s.2.6.3.9.3.5.5.6.4.2.7.2.5-.1.6-.2c.2-.2.4-.4.5-.8z" fill="#0e0465"/><path d="m109.8 183.8h-.3c-.1 3.3-3 2.9-3.6-.2s2.1-4.8 3.3-1.3h.3l-.3-2.4h-.3l-.2.3c-6.6-2.2-4.9 9.9.9 5.8l.3.2h.3z" fill="#0e0465"/><path d="m114 185.6-3.1.5-.1-.3c.1 0 .2 0 .3-.1.1 0 .2-.1.3-.1.1-.1.1-.1.2-.2 0-.1 0-.2 0-.3l-.8-4.6c0-.1 0-.2-.1-.3 0-.1-.1-.1-.2-.1s-.2 0-.3 0-.2 0-.3 0l-.1-.3 3.1-.5.1.3c-.1 0-.2 0-.3.1-.1 0-.2.1-.3.1s-.1.1-.2.2v.3l.8 4.6c0 .1 0 .2.1.3 0 .1.1.1.2.1h.3.3z" fill="#0e0465"/><path d="m118.8 179.8-.3.1c-.1-.3-.3-.5-.6-.8-.2-.3-.4-.4-.6-.4-.1 0-.2 0-.3 0s-.2 0-.3.1h-.2l1.1 5c0 .1.1.2.1.3s.1.1.2.1h.3.3l.1.3-3.1.7-.1-.3c.1 0 .2-.1.3-.1s.2-.1.3-.1l.2-.2c0-.1 0-.2 0-.3l-1.1-5.1h-.2c-.1 0-.2 0-.3.1-.1 0-.2.1-.3.1-.1.1-.3.3-.4.6s-.2.6-.2.9l-.3.1-.4-1.9 5.4-1.2z" fill="#0e0465"/><path d="m124.4 176.6c-.1 0-.2.1-.2.1-.1 0-.1.1-.2.2s-.2.2-.2.3-.1.3-.1.4c-.1.3-.2.7-.3 1-.1.4-.2.8-.3 1.2-.1.3-.1.5-.1.6s.1.4.2.7l.3.9c0 .1.1.2.1.3.1.1.1.1.3.1h.3.3l.1.3-3 .9-.1-.3c.1 0 .2-.1.3-.1s.2-.1.3-.1c.1-.1.1-.2.1-.2 0-.1 0-.2 0-.3l-.3-1.1c0-.1 0-.2-.1-.3 0-.1 0-.1-.1-.2 0 0-.1-.1-.2-.2s-.2-.2-.3-.3c-.3-.3-.6-.6-.9-.9s-.5-.6-.8-.8c-.1-.1-.3-.2-.4-.3s-.2-.1-.3-.2c-.1 0-.2 0-.3 0s-.2 0-.3 0l-.1-.3 3.1-.9.1.3c-.3.1-.5.2-.5.2s-.1.1-.1.2c0 0 0 .1.1.2s.2.2.3.4.3.4.6.6c.3.3.6.6.9 1 .2-1 .4-1.8.4-2.2.1-.4.1-.6.1-.7s-.1-.2-.2-.2-.3 0-.5 0l-.1-.3 2.1-.6z" fill="#0e0465"/><path d="m101.2 132.1c-3.6-3.1-3.7-5.4-3.7-5.4h-2-2s-.1 2.3-3.7 5.4c-.5.4-.5 1.2.1 1.6 2.7 1.8 4.3 4.1 5.1 5.5.3.4.9.4 1.2 0 .8-1.3 2.4-3.6 5.1-5.5.3-.4.4-1.2-.1-1.6z" fill="#fff"/><path d="m91.9 122.4h-3.2c-1.4-2.9-5-6.1-8.2-3.5-2.5 2-.4 4.9 2.5 3.5-.5 3.6-4.9 1.7-6.3 0-2.5-3.1-2.1-7.9 1.2-10.3 6.6-4.9 13.7 4.3 14 10.3z" fill="#fff"/><path d="m98.9 122.4h3.2c1.4-2.9 5-6.1 8.2-3.5 2.5 2 .4 4.9-2.5 3.5.5 3.6 4.9 1.7 6.3 0 2.5-3.1 2.1-7.9-1.2-10.3-6.5-4.9-13.7 4.4-14 10.3z" fill="#fff"/><path d="m88.8 126.7h3.2c-.7 1.9-2.1 4.1-4.1 4.8-2.5.9-6.1-1.1-3.9-3.9-.3 3.6 4.2 1.4 4.8-.9z" fill="#fff"/><path d="m102.1 126.7h-3.2c.7 1.9 2.1 4.1 4.1 4.8 2.5.9 6.1-1.1 3.9-3.9.3 3.6-4.2 1.4-4.8-.9z" fill="#fff"/><path d="m102.3 101c-.6-3.6-3.1-6.4-6.7-9.5v-.1.1c-3.6 3.1-6.1 5.9-6.7 9.5-.4 4.3.8 9 2.2 13.5.9 2.7 1.8 5.4 2.4 7.9h2 2c.7-2.5 1.6-5.2 2.4-7.9 1.5-4.6 2.8-9.2 2.4-13.5z" fill="#fff"/><path d="m102.1 125.8h-13.3c-.7 0-1.3-.6-1.3-1.3 0-.7.6-1.3 1.3-1.3h13.2c.7 0 1.3.6 1.3 1.3 0 .8-.5 1.3-1.2 1.3z" fill="#fff"/><path d="m20.8 85.6 1.4 4.2h4.4l-3.6 2.6 1.4 4.1-3.6-2.5-3.5 2.5 1.4-4.1-3.6-2.6h4.4z" fill="#fff"/><path d="m25 97.4-4.1-3-4.1 3 1.6-4.9-4.1-3h5.1l1.6-4.9 1.6 4.9h5.1l-4.1 3zm-8.9-7.3 2.9 2.1-1.1 3.4 2.9-2.1 2.9 2.1-1.1-3.4 2.9-2.1h-3.5l-1.1-3.5-1.1 3.5z"/><path d="m169.9 85.6 1.3 4.2h4.4l-3.5 2.6 1.3 4.1-3.5-2.5-3.5 2.5 1.3-4.1-3.5-2.6h4.3z" fill="#fff"/><path d="m174 97.4-4.1-3-4.1 3 1.6-4.9-4.1-3h5.1l1.6-4.9 1.6 4.9h5.1l-4.1 3zm-8.9-7.3 2.9 2.1-1.1 3.4 2.9-2.1 2.9 2.1-1.1-3.4 2.9-2.1h-3.5l-1.1-3.5-1.1 3.5z"/></svg>